<mxfile host="65bd71144e">
    <diagram id="nAf7Kv7eFd1yYzpLPfI9" name="Page-1">
        <mxGraphModel dx="1039" dy="479" grid="0" gridSize="10" guides="1" tooltips="1" connect="1" arrows="1" fold="1" page="1" pageScale="1" pageWidth="850" pageHeight="1100" math="0" shadow="0">
            <root>
                <mxCell id="0"/>
                <mxCell id="1" parent="0"/>
                <mxCell id="2" value="&amp;lt;server-ip&amp;gt;&lt;br&gt;:10082 (Tiny)" style="shape=cylinder3;whiteSpace=wrap;html=1;boundedLbl=1;backgroundOutline=1;size=15;" parent="1" vertex="1">
                    <mxGeometry x="680" y="50" width="65" height="80" as="geometry"/>
                </mxCell>
                <mxCell id="3" value="&amp;lt;server-ip&amp;gt;&lt;br&gt;:10083 (Small)" style="shape=cylinder3;whiteSpace=wrap;html=1;boundedLbl=1;backgroundOutline=1;size=15;" parent="1" vertex="1">
                    <mxGeometry x="680" y="140" width="64" height="80" as="geometry"/>
                </mxCell>
                <mxCell id="4" value="&amp;lt;server-ip&amp;gt;&lt;br&gt;:10084 (Medium)" style="shape=cylinder3;whiteSpace=wrap;html=1;boundedLbl=1;backgroundOutline=1;size=15;" parent="1" vertex="1">
                    <mxGeometry x="680" y="230" width="65" height="80" as="geometry"/>
                </mxCell>
                <mxCell id="5" value="&amp;lt;server-ip&amp;gt;&lt;br&gt;:10085 (Large)" style="shape=cylinder3;whiteSpace=wrap;html=1;boundedLbl=1;backgroundOutline=1;size=15;" parent="1" vertex="1">
                    <mxGeometry x="680" y="320" width="65" height="80" as="geometry"/>
                </mxCell>
                <mxCell id="7" value="&lt;span style=&quot;font-weight: 400;&quot;&gt;web-servers&lt;/span&gt;" style="swimlane;whiteSpace=wrap;html=1;dashed=1;startSize=30;" parent="1" vertex="1">
                    <mxGeometry x="660" y="10" width="103" height="400" as="geometry"/>
                </mxCell>
                <mxCell id="8" value="nginx&lt;br&gt;http://&amp;lt;proxy-ip&amp;gt;:8100&lt;br&gt;https://&amp;lt;proxy-ip&amp;gt;:8433" style="shape=step;perimeter=stepPerimeter;whiteSpace=wrap;html=1;fixedSize=1;fontColor=#7AF09A;" parent="1" vertex="1">
                    <mxGeometry x="329" y="40" width="160" height="53" as="geometry"/>
                </mxCell>
                <mxCell id="9" value="" style="endArrow=blockThin;html=1;exitX=1;exitY=0.5;exitDx=0;exitDy=0;entryX=0;entryY=0;entryDx=0;entryDy=52.5;entryPerimeter=0;fontColor=#7AF09A;startArrow=blockThin;startFill=1;endFill=1;" parent="1" source="8" target="2" edge="1">
                    <mxGeometry width="50" height="50" relative="1" as="geometry">
                        <mxPoint x="560" y="230" as="sourcePoint"/>
                        <mxPoint x="610" y="180" as="targetPoint"/>
                    </mxGeometry>
                </mxCell>
                <mxCell id="13" value="/server2" style="edgeLabel;html=1;align=center;verticalAlign=middle;resizable=0;points=[];fontColor=#7AF09A;" parent="9" vertex="1" connectable="0">
                    <mxGeometry x="-0.0698" y="2" relative="1" as="geometry">
                        <mxPoint as="offset"/>
                    </mxGeometry>
                </mxCell>
                <mxCell id="10" value="/server3" style="endArrow=blockThin;html=1;exitX=1;exitY=0.5;exitDx=0;exitDy=0;entryX=0;entryY=0;entryDx=0;entryDy=52.5;entryPerimeter=0;fontColor=#7AF09A;startArrow=blockThin;startFill=1;endFill=1;" parent="1" source="8" target="3" edge="1">
                    <mxGeometry x="0.3284" y="7" width="50" height="50" relative="1" as="geometry">
                        <mxPoint x="510" y="70" as="sourcePoint"/>
                        <mxPoint x="690" y="100" as="targetPoint"/>
                        <mxPoint as="offset"/>
                    </mxGeometry>
                </mxCell>
                <mxCell id="11" value="" style="endArrow=blockThin;html=1;entryX=0;entryY=0;entryDx=0;entryDy=52.5;entryPerimeter=0;exitX=1;exitY=0.5;exitDx=0;exitDy=0;fontColor=#7AF09A;startArrow=blockThin;startFill=1;endFill=1;" parent="1" source="8" target="4" edge="1">
                    <mxGeometry width="50" height="50" relative="1" as="geometry">
                        <mxPoint x="500" y="60" as="sourcePoint"/>
                        <mxPoint x="700" y="110" as="targetPoint"/>
                    </mxGeometry>
                </mxCell>
                <mxCell id="14" value="/server4" style="edgeLabel;html=1;align=center;verticalAlign=middle;resizable=0;points=[];fontColor=#7AF09A;" parent="11" vertex="1" connectable="0">
                    <mxGeometry x="0.0554" y="-1" relative="1" as="geometry">
                        <mxPoint as="offset"/>
                    </mxGeometry>
                </mxCell>
                <mxCell id="12" value="" style="endArrow=blockThin;html=1;entryX=0;entryY=0;entryDx=0;entryDy=52.5;entryPerimeter=0;exitX=1;exitY=0.5;exitDx=0;exitDy=0;fontColor=#7AF09A;startArrow=blockThin;startFill=1;endFill=1;" parent="1" source="8" target="5" edge="1">
                    <mxGeometry width="50" height="50" relative="1" as="geometry">
                        <mxPoint x="500" y="60" as="sourcePoint"/>
                        <mxPoint x="710" y="120" as="targetPoint"/>
                    </mxGeometry>
                </mxCell>
                <mxCell id="15" value="/server5" style="edgeLabel;html=1;align=center;verticalAlign=middle;resizable=0;points=[];fontColor=#7AF09A;" parent="12" vertex="1" connectable="0">
                    <mxGeometry x="0.0597" y="1" relative="1" as="geometry">
                        <mxPoint x="29" y="38" as="offset"/>
                    </mxGeometry>
                </mxCell>
                <mxCell id="16" value="haproxy&lt;br&gt;http://&amp;lt;proxy-ip&amp;gt;:8200&lt;br&gt;https://&amp;lt;proxy-ip&amp;gt;:7433" style="shape=step;perimeter=stepPerimeter;whiteSpace=wrap;html=1;fixedSize=1;fontColor=#F0439F;" parent="1" vertex="1">
                    <mxGeometry x="329" y="136" width="160" height="54" as="geometry"/>
                </mxCell>
                <mxCell id="17" value="" style="endArrow=blockThin;html=1;exitX=1;exitY=0.5;exitDx=0;exitDy=0;entryX=0;entryY=0;entryDx=0;entryDy=52.5;entryPerimeter=0;startArrow=blockThin;startFill=1;endFill=1;" parent="1" source="16" target="2" edge="1">
                    <mxGeometry width="50" height="50" relative="1" as="geometry">
                        <mxPoint x="560" y="350" as="sourcePoint"/>
                        <mxPoint x="680" y="210" as="targetPoint"/>
                    </mxGeometry>
                </mxCell>
                <mxCell id="18" value="/server2" style="edgeLabel;html=1;align=center;verticalAlign=middle;resizable=0;points=[];fontColor=#F0439F;" parent="17" vertex="1" connectable="0">
                    <mxGeometry x="-0.0698" y="2" relative="1" as="geometry">
                        <mxPoint as="offset"/>
                    </mxGeometry>
                </mxCell>
                <mxCell id="19" value="/server3" style="endArrow=blockThin;html=1;exitX=1;exitY=0.5;exitDx=0;exitDy=0;entryX=0;entryY=0;entryDx=0;entryDy=52.5;entryPerimeter=0;fontColor=#F0439F;startArrow=blockThin;startFill=1;endFill=1;" parent="1" source="16" target="3" edge="1">
                    <mxGeometry x="-0.374" y="6" width="50" height="50" relative="1" as="geometry">
                        <mxPoint x="510" y="190" as="sourcePoint"/>
                        <mxPoint x="680" y="312.5" as="targetPoint"/>
                        <mxPoint as="offset"/>
                    </mxGeometry>
                </mxCell>
                <mxCell id="20" value="" style="endArrow=blockThin;html=1;entryX=0;entryY=0;entryDx=0;entryDy=52.5;entryPerimeter=0;exitX=1;exitY=0.5;exitDx=0;exitDy=0;startArrow=blockThin;startFill=1;endFill=1;" parent="1" source="16" target="4" edge="1">
                    <mxGeometry width="50" height="50" relative="1" as="geometry">
                        <mxPoint x="500" y="180" as="sourcePoint"/>
                        <mxPoint x="680" y="402.5" as="targetPoint"/>
                    </mxGeometry>
                </mxCell>
                <mxCell id="21" value="/server4" style="edgeLabel;html=1;align=center;verticalAlign=middle;resizable=0;points=[];fontColor=#F0439F;" parent="20" vertex="1" connectable="0">
                    <mxGeometry x="0.0554" y="-1" relative="1" as="geometry">
                        <mxPoint y="-12" as="offset"/>
                    </mxGeometry>
                </mxCell>
                <mxCell id="22" value="" style="endArrow=blockThin;html=1;entryX=0;entryY=0;entryDx=0;entryDy=52.5;entryPerimeter=0;exitX=1;exitY=0.5;exitDx=0;exitDy=0;startArrow=blockThin;startFill=1;endFill=1;" parent="1" source="16" target="5" edge="1">
                    <mxGeometry width="50" height="50" relative="1" as="geometry">
                        <mxPoint x="500" y="180" as="sourcePoint"/>
                        <mxPoint x="680" y="492.5" as="targetPoint"/>
                    </mxGeometry>
                </mxCell>
                <mxCell id="23" value="/server5" style="edgeLabel;html=1;align=center;verticalAlign=middle;resizable=0;points=[];fontColor=#F0439F;" parent="22" vertex="1" connectable="0">
                    <mxGeometry x="0.0597" y="1" relative="1" as="geometry">
                        <mxPoint x="19" y="21" as="offset"/>
                    </mxGeometry>
                </mxCell>
                <mxCell id="24" value="traefik&lt;br&gt;http://&amp;lt;proxy-ip&amp;gt;:8300&lt;br&gt;https://&amp;lt;proxy-ip&amp;gt;:9433" style="shape=step;perimeter=stepPerimeter;whiteSpace=wrap;html=1;fixedSize=1;fontColor=#007FFF;" parent="1" vertex="1">
                    <mxGeometry x="331" y="237" width="160" height="60" as="geometry"/>
                </mxCell>
                <mxCell id="25" value="" style="endArrow=blockThin;html=1;exitX=1;exitY=0.5;exitDx=0;exitDy=0;entryX=0;entryY=0;entryDx=0;entryDy=52.5;entryPerimeter=0;startArrow=blockThin;startFill=1;endFill=1;" parent="1" source="24" target="2" edge="1">
                    <mxGeometry width="50" height="50" relative="1" as="geometry">
                        <mxPoint x="560" y="460" as="sourcePoint"/>
                        <mxPoint x="680" y="200" as="targetPoint"/>
                    </mxGeometry>
                </mxCell>
                <mxCell id="26" value="/server2" style="edgeLabel;html=1;align=center;verticalAlign=middle;resizable=0;points=[];fontColor=#007FFF;" parent="25" vertex="1" connectable="0">
                    <mxGeometry x="-0.0698" y="2" relative="1" as="geometry">
                        <mxPoint x="-47" y="35" as="offset"/>
                    </mxGeometry>
                </mxCell>
                <mxCell id="27" value="/server3" style="endArrow=blockThin;html=1;exitX=1;exitY=0.5;exitDx=0;exitDy=0;fontColor=#007FFF;startArrow=blockThin;startFill=1;endFill=1;" parent="1" source="24" target="3" edge="1">
                    <mxGeometry x="-0.4743" y="2" width="50" height="50" relative="1" as="geometry">
                        <mxPoint x="510" y="300" as="sourcePoint"/>
                        <mxPoint x="680" y="302.5" as="targetPoint"/>
                        <mxPoint as="offset"/>
                    </mxGeometry>
                </mxCell>
                <mxCell id="28" value="" style="endArrow=blockThin;html=1;entryX=0;entryY=0;entryDx=0;entryDy=52.5;entryPerimeter=0;exitX=1;exitY=0.5;exitDx=0;exitDy=0;startArrow=blockThin;startFill=1;endFill=1;" parent="1" source="24" target="4" edge="1">
                    <mxGeometry width="50" height="50" relative="1" as="geometry">
                        <mxPoint x="500" y="290" as="sourcePoint"/>
                        <mxPoint x="680" y="392.5" as="targetPoint"/>
                    </mxGeometry>
                </mxCell>
                <mxCell id="29" value="/server4" style="edgeLabel;html=1;align=center;verticalAlign=middle;resizable=0;points=[];fontColor=#007FFF;" parent="28" vertex="1" connectable="0">
                    <mxGeometry x="0.0554" y="-1" relative="1" as="geometry">
                        <mxPoint x="-40" y="-13" as="offset"/>
                    </mxGeometry>
                </mxCell>
                <mxCell id="30" value="" style="endArrow=blockThin;html=1;entryX=0;entryY=0;entryDx=0;entryDy=52.5;entryPerimeter=0;exitX=1;exitY=0.5;exitDx=0;exitDy=0;startArrow=blockThin;startFill=1;endFill=1;" parent="1" source="24" target="5" edge="1">
                    <mxGeometry width="50" height="50" relative="1" as="geometry">
                        <mxPoint x="500" y="290" as="sourcePoint"/>
                        <mxPoint x="680" y="482.5" as="targetPoint"/>
                    </mxGeometry>
                </mxCell>
                <mxCell id="31" value="/server5" style="edgeLabel;html=1;align=center;verticalAlign=middle;resizable=0;points=[];fontColor=#007FFF;" parent="30" vertex="1" connectable="0">
                    <mxGeometry x="0.0597" y="1" relative="1" as="geometry">
                        <mxPoint x="-42" y="-38" as="offset"/>
                    </mxGeometry>
                </mxCell>
                <mxCell id="32" value="monolake&lt;br&gt;http://&amp;lt;proxy-ip&amp;gt;:8402-5&lt;br&gt;https://&amp;lt;proxy-ip&amp;gt;:6442-5" style="shape=step;perimeter=stepPerimeter;whiteSpace=wrap;html=1;fixedSize=1;fontColor=#FFFF00;" parent="1" vertex="1">
                    <mxGeometry x="329" y="340" width="160" height="55" as="geometry"/>
                </mxCell>
                <mxCell id="33" value="" style="endArrow=blockThin;html=1;exitX=1;exitY=0.5;exitDx=0;exitDy=0;entryX=0;entryY=0;entryDx=0;entryDy=52.5;entryPerimeter=0;startArrow=blockThin;startFill=1;endFill=1;" parent="1" source="32" target="2" edge="1">
                    <mxGeometry width="50" height="50" relative="1" as="geometry">
                        <mxPoint x="560" y="580" as="sourcePoint"/>
                        <mxPoint x="680" y="320" as="targetPoint"/>
                    </mxGeometry>
                </mxCell>
                <mxCell id="34" value="/" style="edgeLabel;html=1;align=center;verticalAlign=middle;resizable=0;points=[];fontColor=#FFFF00;" parent="33" vertex="1" connectable="0">
                    <mxGeometry x="-0.0698" y="2" relative="1" as="geometry">
                        <mxPoint x="-47" y="65" as="offset"/>
                    </mxGeometry>
                </mxCell>
                <mxCell id="35" value="/" style="endArrow=blockThin;html=1;exitX=1;exitY=0.5;exitDx=0;exitDy=0;entryX=0;entryY=0;entryDx=0;entryDy=52.5;entryPerimeter=0;fontColor=#FFFF00;startArrow=blockThin;startFill=1;endFill=1;" parent="1" source="32" target="3" edge="1">
                    <mxGeometry x="-0.571" width="50" height="50" relative="1" as="geometry">
                        <mxPoint x="510" y="420" as="sourcePoint"/>
                        <mxPoint x="680" y="422.5" as="targetPoint"/>
                        <mxPoint as="offset"/>
                    </mxGeometry>
                </mxCell>
                <mxCell id="36" value="" style="endArrow=blockThin;html=1;entryX=0;entryY=0;entryDx=0;entryDy=52.5;entryPerimeter=0;exitX=1;exitY=0.5;exitDx=0;exitDy=0;startArrow=blockThin;startFill=1;endFill=1;" parent="1" source="32" target="4" edge="1">
                    <mxGeometry width="50" height="50" relative="1" as="geometry">
                        <mxPoint x="500" y="410" as="sourcePoint"/>
                        <mxPoint x="680" y="512.5" as="targetPoint"/>
                    </mxGeometry>
                </mxCell>
                <mxCell id="37" value="/" style="edgeLabel;html=1;align=center;verticalAlign=middle;resizable=0;points=[];fontColor=#FFFF00;" parent="36" vertex="1" connectable="0">
                    <mxGeometry x="0.0554" y="-1" relative="1" as="geometry">
                        <mxPoint x="-60" y="24" as="offset"/>
                    </mxGeometry>
                </mxCell>
                <mxCell id="38" value="" style="endArrow=blockThin;html=1;entryX=0;entryY=0;entryDx=0;entryDy=52.5;entryPerimeter=0;startArrow=blockThin;startFill=1;endFill=1;" parent="1" source="32" target="5" edge="1">
                    <mxGeometry width="50" height="50" relative="1" as="geometry">
                        <mxPoint x="500" y="410" as="sourcePoint"/>
                        <mxPoint x="680" y="602.5" as="targetPoint"/>
                    </mxGeometry>
                </mxCell>
                <mxCell id="39" value="/" style="edgeLabel;html=1;align=center;verticalAlign=middle;resizable=0;points=[];fontColor=#FFFF00;" parent="38" vertex="1" connectable="0">
                    <mxGeometry x="0.0597" y="1" relative="1" as="geometry">
                        <mxPoint x="-59" y="-2" as="offset"/>
                    </mxGeometry>
                </mxCell>
                <mxCell id="40" value="&lt;font style=&quot;font-size: 12px;&quot;&gt;wrk '&amp;lt;proxy&amp;gt;'&amp;nbsp;&lt;span style=&quot;font-variant-ligatures: no-common-ligatures; text-align: start; background-color: initial;&quot;&gt;&lt;font style=&quot;&quot;&gt;-d 1m -c 10 -t 2&lt;/font&gt;&lt;/span&gt;&lt;/font&gt;" style="rounded=0;whiteSpace=wrap;html=1;" parent="1" vertex="1">
                    <mxGeometry x="40" y="191" width="180" height="30" as="geometry"/>
                </mxCell>
                <mxCell id="41" value="" style="endArrow=blockThin;html=1;fontFamily=Helvetica;fontSize=12;fontColor=#F0F0F0;exitX=1;exitY=0.5;exitDx=0;exitDy=0;entryX=0;entryY=0.5;entryDx=0;entryDy=0;startArrow=blockThin;startFill=1;endFill=1;" parent="1" source="40" target="8" edge="1">
                    <mxGeometry width="50" height="50" relative="1" as="geometry">
                        <mxPoint x="350" y="230" as="sourcePoint"/>
                        <mxPoint x="400" y="180" as="targetPoint"/>
                    </mxGeometry>
                </mxCell>
                <mxCell id="42" value="" style="endArrow=blockThin;html=1;fontFamily=Helvetica;fontSize=12;fontColor=#F0F0F0;exitX=1;exitY=0.5;exitDx=0;exitDy=0;entryX=0;entryY=0.5;entryDx=0;entryDy=0;startArrow=blockThin;startFill=1;endFill=1;" parent="1" source="40" target="16" edge="1">
                    <mxGeometry width="50" height="50" relative="1" as="geometry">
                        <mxPoint x="230" y="216" as="sourcePoint"/>
                        <mxPoint x="359" y="63" as="targetPoint"/>
                    </mxGeometry>
                </mxCell>
                <mxCell id="43" value="" style="endArrow=blockThin;html=1;fontFamily=Helvetica;fontSize=12;fontColor=#F0F0F0;entryX=0;entryY=0.5;entryDx=0;entryDy=0;startArrow=blockThin;startFill=1;endFill=1;" parent="1" target="24" edge="1">
                    <mxGeometry width="50" height="50" relative="1" as="geometry">
                        <mxPoint x="220" y="210" as="sourcePoint"/>
                        <mxPoint x="369" y="73" as="targetPoint"/>
                    </mxGeometry>
                </mxCell>
                <mxCell id="44" value="" style="endArrow=blockThin;html=1;fontFamily=Helvetica;fontSize=12;fontColor=#F0F0F0;exitX=1;exitY=0.5;exitDx=0;exitDy=0;entryX=0;entryY=0.5;entryDx=0;entryDy=0;startArrow=blockThin;startFill=1;endFill=1;" parent="1" source="40" target="32" edge="1">
                    <mxGeometry width="50" height="50" relative="1" as="geometry">
                        <mxPoint x="250" y="236" as="sourcePoint"/>
                        <mxPoint x="379" y="83" as="targetPoint"/>
                    </mxGeometry>
                </mxCell>
                <mxCell id="45" value="&lt;font style=&quot;font-weight: normal;&quot; color=&quot;#ffffff&quot;&gt;proxy services&lt;/font&gt;" style="swimlane;whiteSpace=wrap;html=1;fontFamily=Helvetica;fontSize=12;fontColor=#FFFF00;dashed=1;" parent="1" vertex="1">
                    <mxGeometry x="324" y="8" width="170" height="400" as="geometry"/>
                </mxCell>
                <mxCell id="46" value="&lt;font color=&quot;#ffffff&quot;&gt;&lt;span style=&quot;font-weight: 400;&quot;&gt;client&lt;/span&gt;&lt;/font&gt;" style="swimlane;whiteSpace=wrap;html=1;fontFamily=Helvetica;fontSize=12;fontColor=#FFFF00;dashed=1;" vertex="1" parent="1">
                    <mxGeometry x="33" y="155" width="204" height="83" as="geometry"/>
                </mxCell>
            </root>
        </mxGraphModel>
    </diagram>
</mxfile>